<svg width="1220" height="270" viewBox="0 0 1220 270" fill="none" xmlns="http://www.w3.org/2000/svg">
<g clip-path="url(#clip0_6_2)">
<path d="M-0.999998 -4.76837e-06H145.4C206.2 -4.76837e-06 232.2 37.6 232.2 80.8C232.2 114.4 216.2 150.4 175 162L237.8 270H185.4L123.8 165.6H53.4C49 165.6 46.6 167.6 46.6 172.4V270H-0.6V163.2C-0.6 132.8 12.2 120.4 41.8 120.4H147C173.8 120.4 184.6 102 184.6 82.8C184.6 63.6 173 47.2 147 47.2H-0.999998V-4.76837e-06ZM259.069 -4.76837e-06H464.269V47.2H385.469V270H337.869V47.2H259.069V-4.76837e-06ZM563.866 58.8H632.266C682.266 58.8 703.466 82.8 703.466 123.6C703.466 162.4 683.866 184.4 631.866 184.4H531.466V199.6C531.466 216.4 540.666 228.8 563.866 228.8H693.066V270H563.866C511.066 270 490.266 240.4 490.266 200.4V128.4C490.266 88.4 511.066 58.8 563.866 58.8ZM531.466 128.8V151.2H630.666C653.466 151.2 661.866 141.6 661.866 126C661.866 110 652.666 99.6 631.866 99.6H563.866C540.666 99.6 531.466 112.4 531.466 128.8ZM837.203 58.8H946.003V99.6H841.203C804.403 99.6 788.403 118.8 788.403 164.4C788.403 210 804.403 228.8 841.203 228.8H946.003V270H837.203C780.803 270 745.603 235.6 745.603 164.4C745.603 93.2 780.803 58.8 837.203 58.8ZM996.228 -32.8H1038.63V58.8H1113.03C1184.23 58.8 1219.43 93.2 1219.43 151.2V270H1176.63V151.2C1176.63 118.8 1157.03 99.6 1113.03 99.6H1038.63V270H996.228V-32.8Z" fill="white"/>
</g>
<defs>
<clipPath id="clip0_6_2">
<rect width="1219.4" height="270" fill="white"/>
</clipPath>
</defs>
</svg>
